<svg width="185" height="160" viewBox="0 0 185 160" fill="none" xmlns="http://www.w3.org/2000/svg">
<g opacity="0.5" clip-path="url(#clip0)">
<path d="M141.532 145.549H58.3252C54.2269 145.549 37.0741 146.608 40.9246 148.939C44.4937 151.1 69.0577 152.328 73.1531 152.328H148.127C160.591 152.328 171.646 150.803 167.567 148.939C163.489 147.076 155.095 145.549 141.532 145.549Z" fill="#A3DCA2"/>
<path d="M161.59 110.769C161.59 110.769 175.464 89.4808 176.799 76.0763C178.135 62.6719 176.799 55.8687 176.799 55.8687C176.799 55.8687 159.423 60.6876 147.569 73.831C135.714 86.9745 140.574 110.761 140.574 110.761L161.59 110.769Z" fill="#279625"/>
<path d="M149.074 105.093L139.831 93.9714C139.849 93.7805 139.867 93.5897 139.887 93.3988L149.271 104.688C150.337 102.513 151.61 99.9425 152.95 97.3099L144.104 78.7539C144.184 78.606 144.266 78.4601 144.348 78.316L153.184 96.8496C155.22 92.8572 157.382 88.7707 159.159 85.7634L151.605 69.8344L151.926 69.5538L159.411 85.3396C159.731 84.8063 160.038 84.3124 160.326 83.8633C161.437 82.1372 162.966 79.5131 164.654 76.5072L162.731 61.9759L163.117 61.7598L164.987 75.915C166.868 72.547 168.92 68.7749 170.796 65.2765L169.19 58.737L169.571 58.5686L171.092 64.7362C172.871 61.4131 174.47 58.3792 175.596 56.2504C175.809 56.1802 175.993 56.1212 176.159 56.0721C175.033 58.2108 173.344 61.4047 171.468 64.92L177.379 62.6663C177.379 62.8066 177.386 62.947 177.39 63.0999L171.16 65.4701C169.277 68.9784 167.219 72.7772 165.329 76.1507L177.189 71.3472L177.16 71.8005L165.01 76.7205C163.321 79.7292 161.788 82.359 160.675 84.0879C160.394 84.5243 160.097 85.0056 159.787 85.522L175.116 83.5574C175.07 83.6977 175.022 83.8381 174.975 83.9868L159.517 85.9725C157.735 88.9826 155.564 93.0887 153.52 97.0966L169.588 96.4132L169.373 96.8341L153.308 97.5176C151.976 100.136 150.71 102.693 149.649 104.857L165.097 104.505L164.849 104.926L149.446 105.278C148.168 107.894 147.221 109.872 146.883 110.582L146.423 110.598C146.644 110.118 147.657 108.005 149.074 105.093Z" fill="#9FC6A2"/>
<path d="M182.868 95.1543C172.12 90.9051 154.946 102.701 144.033 121.834C138.685 131.207 138.404 138.003 139.576 142.557L159.04 142.623C167.853 131.99 192.311 98.89 182.868 95.1543Z" fill="#3DB83A"/>
<path d="M149.326 138.334L162.274 130.818C162.345 130.785 162.403 130.728 162.437 130.658C162.471 130.587 162.479 130.507 162.461 130.431C162.409 130.307 162.24 130.279 162.084 130.37L149.559 137.648C149.939 136.478 150.35 135.262 150.793 134.012C150.801 133.995 150.808 133.977 150.813 133.959C151.843 131.024 153.023 128.143 154.349 125.328L167.536 120.375C167.613 120.349 167.68 120.3 167.727 120.235C167.774 120.169 167.799 120.09 167.799 120.01C167.782 119.869 167.635 119.805 167.473 119.869L154.666 124.681C155.13 123.738 155.613 122.821 156.111 121.939C156.709 120.885 157.331 119.886 157.976 118.962C159.133 117.306 160.262 115.783 161.354 114.387L173.696 109.773C173.773 109.747 173.84 109.698 173.888 109.633C173.935 109.567 173.961 109.489 173.961 109.408C173.944 109.267 173.798 109.203 173.636 109.267L161.955 113.635C165.598 109.047 168.755 105.9 170.981 103.912C174.231 101.012 176.255 99.8905 176.276 99.8793C176.348 99.8469 176.407 99.7911 176.443 99.721C176.479 99.6509 176.49 99.5706 176.474 99.4934C176.428 99.3671 176.262 99.3334 176.106 99.419C176.021 99.4653 173.995 100.584 170.679 103.541C168.752 105.257 166.139 107.83 163.121 111.433C163.244 109.336 163.591 103.402 163.596 103.054C163.596 102.906 163.466 102.823 163.301 102.868C163.222 102.889 163.151 102.933 163.098 102.995C163.044 103.056 163.011 103.133 163.002 103.214C163.002 103.594 162.546 111.262 162.491 112.195C162.009 112.784 161.516 113.399 161.014 114.039C161 114.055 160.986 114.072 160.974 114.091C159.86 115.519 158.709 117.08 157.52 118.773C156.97 119.561 156.438 120.401 155.923 121.281L152.029 114.251C151.964 114.134 151.789 114.122 151.639 114.221C151.568 114.252 151.511 114.308 151.478 114.377C151.444 114.447 151.437 114.526 151.457 114.6L155.517 121.93C153.539 125.446 151.839 129.521 150.435 133.396L144.222 126.539C144.133 126.441 143.949 126.457 143.811 126.574C143.673 126.692 143.634 126.868 143.722 126.966L150.19 134.106C149.081 137.231 148.17 140.194 147.467 142.588H148.03C148.402 141.309 148.835 139.874 149.326 138.334Z" fill="#79D894"/>
<path d="M48.2118 147.337H152.787C150.876 147.337 149.044 146.58 147.693 145.233C146.342 143.885 145.583 142.058 145.583 140.153C145.583 136.186 145.987 135.446 145.16 132.969H41.016V140.153C41.016 142.057 41.7738 143.883 43.1231 145.23C44.4723 146.576 46.3026 147.334 48.2118 147.337Z" fill="#FFB85A"/>
<path d="M68.3905 1.91412L68.0654 0.00701949H61.2285C60.1267 0.00135363 59.0589 0.387443 58.2167 1.09599C57.4228 1.77135 56.7851 2.61038 56.3478 3.55523C55.9104 4.50008 55.6838 5.52828 55.6835 6.56891V140.797C55.5242 142.585 54.699 144.25 53.3705 145.461C52.042 146.673 50.3066 147.345 48.506 147.345H152.707C153.601 147.345 154.487 147.169 155.313 146.828C156.139 146.487 156.89 145.987 157.522 145.356C158.155 144.725 158.656 143.977 158.999 143.153C159.341 142.329 159.517 141.446 159.517 140.554V1.91412H68.3905Z" fill="#FFDAA3"/>
<path d="M69.553 3.74684L87.7586 14.3685L159.521 22.3688V11.8243L69.553 3.74684Z" fill="#FFC46B"/>
<path d="M165.819 0H61.2454C62.1914 0 63.1282 0.185808 64.0023 0.546815C64.8764 0.907823 65.6706 1.43696 66.3395 2.10402C67.0085 2.77107 67.5392 3.56298 67.9012 4.43453C68.2633 5.30608 68.4496 6.2402 68.4496 7.18355C68.4496 11.1507 68.0443 11.8903 68.8718 14.3671H173.023V7.18355C173.023 6.2402 172.837 5.30608 172.475 4.43453C172.113 3.56298 171.582 2.77107 170.913 2.10402C170.244 1.43696 169.45 0.907823 168.576 0.546815C167.702 0.185808 166.765 0 165.819 0Z" fill="#FEA03C"/>
<path d="M128.787 34.1777H87.0394V40.7845H128.787V34.1777Z" fill="#FEA03C"/>
<path d="M142.54 49.4022H73.2882V56.009H142.54V49.4022Z" fill="#FEA03C"/>
<path d="M142.54 64.6267H73.2882V71.2335H142.54V64.6267Z" fill="#FEA03C"/>
<path d="M142.54 79.8513H73.2882V86.458H142.54V79.8513Z" fill="#FEA03C"/>
<path d="M106.41 122.543C106.427 116.528 103.061 113.099 96.1521 110.267C93.996 109.377 93.1685 108.382 93.1727 106.837C93.1727 105.458 93.6217 104.687 94.673 104.69C95.781 104.69 96.3322 105.574 96.3266 107.342L105.843 107.369C105.766 101.88 103.479 98.542 97.962 97.6158L97.9704 94.4906L91.6063 94.4738L91.5979 97.5863C85.6124 98.6332 83.172 103.026 83.1537 107.971C83.1368 114.096 86.1162 116.862 92.5282 119.639C95.2908 120.971 96.1183 122.025 96.1127 123.952C96.1127 125.056 95.72 126.214 94.5646 126.21C93.3472 126.21 92.8518 125.102 92.8012 123.501L82.8413 123.475C83.0229 127.861 84.9355 132.252 91.5022 133.309L91.4923 136.796L97.855 136.813L97.8649 133.317C104.332 132.282 106.396 127.918 106.41 122.543Z" fill="white"/>
<path d="M62.5549 57.5962C74.7116 45.5588 74.9191 26.1136 63.0185 14.164C51.1178 2.2144 31.6155 2.28557 19.4588 14.323C7.30219 26.3603 7.09466 45.8056 18.9953 57.7552C30.896 69.7048 50.3983 69.6336 62.5549 57.5962Z" fill="#3F434C"/>
<path d="M58.0795 53.1024C67.7107 43.5656 67.8747 28.1595 58.4458 18.6918C49.0168 9.22405 33.5655 9.28001 23.9343 18.8167C14.303 28.3535 14.139 43.7596 23.568 53.2273C32.9969 62.6951 48.4483 62.6391 58.0795 53.1024Z" fill="white"/>
<path d="M28.0684 39.5678C27.9594 39.5667 27.8546 39.5261 27.7734 39.4537C27.6922 39.3812 27.6402 39.2818 27.6272 39.1739C27.6141 39.0661 27.6408 38.9571 27.7023 38.8675C27.7638 38.7778 27.8559 38.7135 27.9614 38.6865L40.6093 35.5992L43.4916 16.8861C43.4998 16.8271 43.5198 16.7704 43.5502 16.7193C43.5807 16.6681 43.6211 16.6235 43.6691 16.5881C43.717 16.5527 43.7716 16.5272 43.8295 16.5131C43.8875 16.4989 43.9477 16.4965 44.0066 16.5058C44.0655 16.5151 44.122 16.5361 44.1727 16.5674C44.2235 16.5987 44.2674 16.6398 44.302 16.6883C44.3366 16.7368 44.3612 16.7916 44.3742 16.8497C44.3873 16.9077 44.3887 16.9678 44.3782 17.0264L41.4017 36.3261L28.1725 39.5537C28.1384 39.5623 28.1035 39.567 28.0684 39.5678Z" fill="#3F434C"/>
<path d="M41.289 16.7134C41.2301 16.7127 41.1719 16.7004 41.1178 16.6772C41.0637 16.654 41.0147 16.6204 40.9737 16.5783C40.9326 16.5362 40.9003 16.4864 40.8786 16.4318C40.8569 16.3772 40.8462 16.3189 40.8471 16.2602L40.8837 13.6612C40.8845 13.6025 40.897 13.5444 40.9203 13.4904C40.9436 13.4364 40.9774 13.3875 41.0197 13.3466C41.0619 13.3056 41.1119 13.2733 41.1667 13.2516C41.2215 13.2298 41.28 13.2191 41.339 13.2199C41.3979 13.2207 41.4561 13.2331 41.5103 13.2564C41.5645 13.2797 41.6135 13.3133 41.6546 13.3555C41.6957 13.3976 41.7281 13.4475 41.7498 13.5021C41.7716 13.5567 41.7824 13.6151 41.7816 13.6739L41.7436 16.2728C41.7417 16.3913 41.6929 16.5042 41.6076 16.5868C41.5224 16.6694 41.4078 16.7149 41.289 16.7134Z" fill="#3F434C"/>
<path d="M27.2394 22.4825C27.1799 22.4826 27.121 22.4709 27.0662 22.448C27.0113 22.4251 26.9616 22.3915 26.9199 22.3492L25.103 20.5122C25.0227 20.4271 24.9789 20.314 24.981 20.1971C24.9832 20.0802 25.0311 19.9688 25.1146 19.8867C25.198 19.8046 25.3104 19.7583 25.4276 19.7577C25.5449 19.7571 25.6577 19.8023 25.742 19.8835L27.5589 21.7219C27.6206 21.7848 27.6623 21.8644 27.6788 21.9508C27.6954 22.0372 27.686 22.1266 27.652 22.2077C27.6179 22.2889 27.5606 22.3582 27.4872 22.4071C27.4138 22.4559 27.3276 22.4822 27.2394 22.4825Z" fill="#3F434C"/>
<path d="M21.254 36.4103H18.6475C18.5866 36.4137 18.5255 36.4047 18.4682 36.3838C18.4108 36.3629 18.3583 36.3305 18.314 36.2887C18.2696 36.2468 18.2342 36.1964 18.2101 36.1405C18.1859 36.0845 18.1735 36.0243 18.1735 35.9634C18.1735 35.9025 18.1859 35.8422 18.2101 35.7863C18.2342 35.7304 18.2696 35.6799 18.314 35.6381C18.3583 35.5963 18.4108 35.5639 18.4682 35.543C18.5255 35.522 18.5866 35.513 18.6475 35.5164H21.254C21.3149 35.513 21.376 35.522 21.4333 35.543C21.4907 35.5639 21.5432 35.5963 21.5875 35.6381C21.6319 35.6799 21.6673 35.7304 21.6914 35.7863C21.7156 35.8422 21.728 35.9025 21.728 35.9634C21.728 36.0243 21.7156 36.0845 21.6914 36.1405C21.6673 36.1964 21.6319 36.2468 21.5875 36.2887C21.5432 36.3305 21.4907 36.3629 21.4333 36.3838C21.376 36.4047 21.3149 36.4137 21.254 36.4103Z" fill="#3F434C"/>
<path d="M24.9709 52.1765C24.8818 52.1765 24.7948 52.1501 24.7209 52.1006C24.647 52.0512 24.5895 51.9809 24.5557 51.8988C24.5219 51.8167 24.5134 51.7264 24.5312 51.6394C24.5489 51.5524 24.5923 51.4727 24.6556 51.4103L26.526 49.572C26.6121 49.4959 26.7241 49.4557 26.839 49.4596C26.954 49.4635 27.063 49.5112 27.1437 49.5929C27.2244 49.6746 27.2705 49.7841 27.2727 49.8987C27.2748 50.0134 27.2327 50.1245 27.1551 50.2091L25.2861 52.0474C25.2021 52.1301 25.0889 52.1765 24.9709 52.1765Z" fill="#3F434C"/>
<path d="M40.6881 58.7062C40.6291 58.7054 40.5709 58.6931 40.5167 58.67C40.4625 58.6468 40.4135 58.6132 40.3723 58.5711C40.3311 58.529 40.2987 58.4792 40.2768 58.4246C40.2549 58.3701 40.244 58.3117 40.2448 58.2529L40.2757 55.661C40.2836 55.5467 40.3351 55.4398 40.4195 55.3622C40.504 55.2846 40.6151 55.2423 40.73 55.2439C40.8448 55.2455 40.9547 55.291 41.037 55.3709C41.1192 55.4508 41.1676 55.5592 41.1722 55.6736L41.1356 58.2725C41.132 58.3886 41.0833 58.4987 40.9998 58.5796C40.9163 58.6605 40.8045 58.7059 40.6881 58.7062Z" fill="#3F434C"/>
<path d="M56.5927 52.1765C56.5332 52.1764 56.4744 52.1645 56.4196 52.1416C56.3648 52.1187 56.315 52.0853 56.2732 52.0432L54.4563 50.2049C54.4113 50.1639 54.3752 50.1142 54.3501 50.0588C54.325 50.0034 54.3115 49.9435 54.3104 49.8828C54.3093 49.822 54.3205 49.7617 54.3436 49.7054C54.3666 49.6492 54.4008 49.5982 54.4443 49.5555C54.4877 49.5129 54.5394 49.4795 54.5961 49.4575C54.6529 49.4354 54.7136 49.4251 54.7745 49.4271C54.8354 49.4292 54.8953 49.4436 54.9504 49.4695C55.0055 49.4953 55.0548 49.5321 55.0952 49.5776L56.9121 51.4145C56.9743 51.4774 57.0164 51.5571 57.0333 51.6438C57.0501 51.7304 57.0408 51.8201 57.0067 51.9015C56.9726 51.983 56.915 52.0525 56.8414 52.1014C56.7677 52.1504 56.6812 52.1765 56.5927 52.1765Z" fill="#3F434C"/>
<path d="M63.3677 36.4103H60.7613C60.7003 36.4137 60.6393 36.4047 60.5819 36.3838C60.5246 36.3629 60.4721 36.3305 60.4277 36.2887C60.3834 36.2468 60.348 36.1964 60.3238 36.1405C60.2997 36.0845 60.2872 36.0243 60.2872 35.9634C60.2872 35.9025 60.2997 35.8422 60.3238 35.7863C60.348 35.7304 60.3834 35.6799 60.4277 35.6381C60.4721 35.5963 60.5246 35.5639 60.5819 35.543C60.6393 35.522 60.7003 35.513 60.7613 35.5164H63.3677C63.4287 35.513 63.4897 35.522 63.5471 35.543C63.6045 35.5639 63.6569 35.5963 63.7013 35.6381C63.7457 35.6799 63.781 35.7304 63.8052 35.7863C63.8293 35.8422 63.8418 35.9025 63.8418 35.9634C63.8418 36.0243 63.8293 36.0845 63.8052 36.1405C63.781 36.1964 63.7457 36.2468 63.7013 36.2887C63.6569 36.3305 63.6045 36.3629 63.5471 36.3838C63.4897 36.4047 63.4287 36.4137 63.3677 36.4103Z" fill="#3F434C"/>
<path d="M55.1755 22.4825C55.1159 22.4829 55.0569 22.4713 55.002 22.4484C54.9471 22.4255 54.8974 22.3917 54.856 22.3491C54.8142 22.3077 54.781 22.2584 54.7583 22.2041C54.7357 22.1497 54.724 22.0915 54.724 22.0327C54.724 21.9739 54.7357 21.9156 54.7583 21.8613C54.781 21.807 54.8142 21.7577 54.856 21.7162L56.7292 19.8765C56.7708 19.8336 56.8206 19.7994 56.8756 19.776C56.9306 19.7526 56.9898 19.7403 57.0496 19.74C57.1095 19.7397 57.1688 19.7514 57.2241 19.7742C57.2793 19.7971 57.3295 19.8308 57.3715 19.8732C57.4135 19.9157 57.4466 19.9661 57.4688 20.0216C57.491 20.077 57.5019 20.1362 57.5008 20.1959C57.4997 20.2556 57.4867 20.3144 57.4624 20.369C57.4382 20.4235 57.4033 20.4727 57.3597 20.5136L55.4893 22.3534C55.4481 22.3944 55.3992 22.427 55.3453 22.4492C55.2914 22.4713 55.2337 22.4826 55.1755 22.4825Z" fill="#3F434C"/>
<path d="M36.4252 89.6C37.3456 90.7788 37.9733 92.3912 38.6038 93.8633C39.6734 96.3387 40.8345 98.6233 40.8345 98.6233C40.8345 98.6233 50.5312 101.542 50.6564 101.774C50.8971 102.219 51.1884 103.317 50.693 103.953C50.5143 104.183 44.2684 105.319 39.7255 103.369C35.1108 101.389 33.3431 93.3216 33.4613 91.8987C33.6513 89.6211 35.7187 88.6935 36.4252 89.6Z" fill="#54678C"/>
<path d="M41.5761 157.143H7.37728C5.68845 157.143 -1.35678 157.589 0.225094 158.571C1.69297 159.482 11.7879 159.999 13.4711 159.999H44.2867C49.4094 159.999 53.9524 159.356 52.2762 158.571C50.6001 157.787 47.1492 157.143 41.5761 157.143Z" fill="#A3DCA2"/>
<path d="M35.8961 80.4785C35.8961 80.4785 36.2297 79.7965 36.9714 80.1979C37.713 80.5992 37.7116 81.618 37.7693 82.2256C37.827 82.8333 37.9875 84.0401 37.3584 84.4597C36.7293 84.8793 36.2325 85.1361 36.1664 85.5922C36.1002 86.0483 36.1072 87.1835 34.8223 86.6966C33.5374 86.2096 33.4544 85.2091 33.8555 83.7791C34.2566 82.3491 34.2735 80.3817 35.8961 80.4785Z" fill="#434A59"/>
<path d="M38.7066 155.848C37.8974 155.49 37.6483 155.321 37.2641 154.823C37.2373 154.79 36.8883 153.31 36.8728 153.25C36.8039 152.989 34.3325 151.601 34.037 153.713C34.4128 155.131 34.3747 157.15 34.8364 157.436C35.716 157.985 41.4664 157.589 41.4242 157.061C41.4017 156.744 39.8015 156.33 38.7066 155.848Z" fill="#434A59"/>
<path d="M10.6312 155.06C10.7283 154.941 11.3743 153.472 11.3982 153.418C11.6796 152.77 14.5746 151.813 13.3938 154.7C13.1123 155.401 12.662 157.134 12.1272 157.366C11.1012 157.798 9.68402 158.222 7.27462 157.995C6.35843 157.902 9.76001 156.118 10.6312 155.06Z" fill="#434A59"/>
<path d="M23.0428 101.312C23.1976 101.099 32.5354 100.61 33.1954 101.147C34.7319 109.258 35.7258 117.462 36.1706 125.704C36.8138 138.541 37.8186 148.956 38.0213 153.407C38.0959 155.058 30.6946 153.855 30.582 152.734C29.8614 145.596 27.5787 117.623 26.996 112.505C26.7244 113.957 21.4539 143.799 16.1425 153.607C15.6021 154.604 10.3062 153.988 10.3977 152.976C10.9831 146.471 18.1452 110.973 19.2035 107.711C20.3969 104.03 22.3306 102.297 23.0428 101.312Z" fill="#3DB83A"/>
<path d="M22.788 100.964C24.0686 99.064 25.6153 96.7541 26.084 95.1249C27.2099 91.1956 27.3844 88.5293 28.5708 87.3772C29.7572 86.2251 31.7824 85.2021 34.6379 86.2321C37.7341 87.3548 37.9959 90.1824 38.3575 92.3449C38.7235 94.5425 35.3275 98.0578 34.2762 104.573C33.8596 107.186 22.3925 101.549 22.788 100.964Z" fill="#FEA03C"/>
<path d="M34.8504 83.5869L33.6218 85.9865C33.422 86.3822 33.9033 87.8796 34.7857 87.6817C35.0446 87.6242 35.0672 86.9604 35.1023 86.4636L35.654 84.1594L34.8504 83.5869Z" fill="#724644"/>
<path d="M35.4711 81.9534L34.9279 82.8459C34.493 83.5476 34.9025 84.6702 35.6315 85.0744C36.7447 85.689 37.2641 85.1516 37.5737 84.2436C37.7369 83.7623 37.4808 82.7449 37.4245 82.3099C37.295 81.3177 36.1776 80.9739 35.4711 81.9534Z" fill="#724644"/>
<path d="M36.3662 83.6472C36.7132 83.8002 37.0832 83.8951 37.4611 83.9279C37.4611 83.9279 37.1937 84.3489 36.8982 84.4331C36.6027 84.5173 36.4014 84.1777 36.3662 83.6472Z" fill="white"/>
<path d="M34.9587 82.9722C34.9204 82.889 34.8912 82.802 34.8714 82.7126C34.832 82.5428 34.7307 82.3 34.5083 82.4825C34.179 82.7463 34.4394 83.6388 34.8799 83.6051C35.2092 83.5869 35.0572 83.1813 34.9587 82.9722Z" fill="#FF867A"/>
<path d="M67.6531 90.5356L66.0537 88.53L56.9713 95.7311L58.5708 97.7367L67.6531 90.5356Z" fill="#404859"/>
<path d="M65.8137 91.6166C58.8191 82.8459 60.2856 70.0379 69.0816 63.0648C77.8775 56.0918 90.7239 57.5526 97.7171 66.3261C104.71 75.0996 103.245 87.9063 94.4492 94.8793C85.6532 101.852 72.8068 100.389 65.8137 91.6166ZM95.7439 67.888C94.2839 66.0576 92.4766 64.5319 90.4252 63.3979C88.3738 62.264 86.1185 61.544 83.788 61.2791C81.4576 61.0143 79.0976 61.2097 76.8429 61.8543C74.5882 62.4989 72.4829 63.5799 70.6472 65.0358C68.8115 66.4916 67.2814 68.2938 66.1442 70.3393C65.007 72.3848 64.2849 74.6336 64.0193 76.9574C63.7537 79.2811 63.9497 81.6343 64.5961 83.8825C65.2425 86.1307 66.3267 88.2299 67.7868 90.0603C73.9116 97.7379 85.1705 99.0233 92.88 92.9091C96.584 89.9675 98.9659 85.6805 99.5029 80.9893C100.04 76.2981 98.6879 71.5862 95.7439 67.888Z" fill="#404859"/>
<path d="M96.3153 67.7743C90.1877 60.0884 78.7445 58.2318 71.0378 64.3418C63.3311 70.4519 60.5417 81.1872 67.3674 89.2254C73.7343 96.7162 85.7433 98.9082 93.4514 92.7954C97.1554 89.8538 99.5373 85.5668 100.074 80.8756C100.611 76.1845 99.2593 71.4725 96.3153 67.7743Z" fill="#BFE6E8"/>
<path d="M64.8158 89.5355C57.8227 80.7648 59.2891 67.9554 68.0851 60.9823C76.8811 54.0093 89.7275 55.4715 96.7207 64.2422C103.714 73.0129 102.247 85.8209 93.4514 92.7954C84.6554 99.7699 71.8104 98.3062 64.8158 89.5355ZM94.7475 65.8069C93.2948 63.9567 91.4893 62.4115 89.4349 61.2602C87.3805 60.109 85.118 59.3746 82.7777 59.0993C80.4373 58.824 78.0655 59.0132 75.7988 59.6561C73.5322 60.299 71.4156 61.3828 69.5709 62.8452C67.7263 64.3075 66.1901 66.1193 65.051 68.1764C63.9118 70.2334 63.1922 72.4948 62.9336 74.8304C62.675 77.166 62.8825 79.5296 63.5442 81.7848C64.2059 84.0401 65.3087 86.1425 66.789 87.9708C72.918 95.6568 84.1755 96.938 91.8822 90.8266C95.586 87.8852 97.9679 83.5986 98.5051 78.9077C99.0424 74.2169 97.6909 69.5052 94.7475 65.8069Z" fill="#0181AF"/>
<path d="M60.733 94.165C59.9566 93.2282 58.84 92.6358 57.627 92.5172C56.414 92.3987 55.2033 92.7635 54.2592 93.5321L40.2996 104.965C39.357 105.737 38.7605 106.851 38.6415 108.061C38.5224 109.272 38.8906 110.48 39.6649 111.42C40.4392 112.36 41.5563 112.955 42.7704 113.074C43.9844 113.192 45.1961 112.825 46.1387 112.053L60.0983 100.619C61.0377 99.8449 61.6318 98.7318 61.7507 97.5225C61.8697 96.3132 61.5038 95.1062 60.733 94.165Z" fill="#0181AF"/>
<path d="M83.4141 65.2344C85.0024 64.7857 86.6835 64.7794 88.2751 65.2161C89.8232 65.6371 91.2193 66.4117 92.5605 67.265C93.6146 67.9343 92.4381 69.4724 91.3924 68.8086C89.2448 67.4446 86.7482 66.3177 84.16 67.0208C83.6548 67.1611 83.1129 67.0208 82.8934 66.5001C82.7104 66.0651 82.9047 65.3733 83.4141 65.2344Z" fill="white"/>
<path d="M79.223 65.6427C79.3473 65.6271 79.4735 65.6357 79.5945 65.668C79.755 65.6511 79.9173 65.6733 80.0674 65.7325C80.2983 65.8398 80.4841 66.0245 80.5923 66.2545C80.6889 66.4916 80.6889 66.757 80.5923 66.9941C80.4922 67.2293 80.3053 67.4172 80.0702 67.5189C79.8573 67.6057 79.6264 67.6394 79.3975 67.6172C79.2495 67.6077 79.1054 67.566 78.9753 67.4951C78.7433 67.39 78.5569 67.2052 78.4503 66.9744C78.3948 66.8572 78.3715 66.7275 78.3828 66.5983C78.3724 66.4737 78.3947 66.3484 78.4475 66.2349C78.5467 65.9986 78.7346 65.8102 78.971 65.7101L79.223 65.6427Z" fill="white"/>
<path d="M34.6125 84.057L34.7533 83.7763C34.9194 83.9363 35.2121 84.5102 35.8412 84.833C36.2007 85.0257 36.5988 85.1359 37.0065 85.1558C36.6884 85.3971 36.2507 85.414 35.6272 85.0702C35.5695 85.0379 35.514 85.0018 35.4612 84.9621L35.2402 85.8813C34.8799 85.5192 34.6463 84.558 34.6125 84.057Z" fill="#441B1B"/>
<path d="M47.594 101.409C47.594 101.409 49.0422 100.436 49.3166 100.323C49.5911 100.209 51.2728 100.08 51.2785 100.189C51.2968 100.479 50.0119 100.53 50.0119 100.53C50.0119 100.53 51.2419 100.637 51.2785 100.803C51.3151 100.968 51.2349 101.023 51.2349 101.023C51.264 101.064 51.2796 101.113 51.2796 101.163C51.2796 101.214 51.264 101.263 51.2349 101.304C51.1729 101.406 50.1568 101.573 50.1568 101.573C50.3931 101.564 50.6296 101.585 50.8605 101.636C51.1265 101.716 50.313 101.834 49.964 101.939C49.615 102.045 49.0929 102.592 48.4384 102.808C47.784 103.024 47.3562 102.916 47.283 102.722C47.2098 102.529 47.1943 101.754 47.594 101.409Z" fill="#724644"/>
<path d="M49.0464 100.609C49.0464 100.609 49.5446 100.154 49.5939 99.8344C49.6431 99.5144 49.356 99.6646 49.1717 99.9481C48.9873 100.232 48.0612 100.892 47.9275 101.071C47.7938 101.249 47.9149 101.403 48.3089 101.211C48.5867 101.053 48.8359 100.849 49.0464 100.609Z" fill="#724644"/>
<path d="M37.0262 83.6262C37.1186 83.5762 37.1974 83.5044 37.2556 83.4171C37.302 83.3497 37.3963 83.4325 37.3527 83.4985C37.2878 83.5951 37.2004 83.6745 37.098 83.73C37.0276 83.7693 36.9544 83.6655 37.0262 83.6262Z" fill="#441B1B"/>
<path d="M36.466 82.4965C36.4862 82.4948 36.5063 82.5008 36.5222 82.5133C36.5381 82.5258 36.5487 82.5439 36.5519 82.5639C36.5638 82.6171 36.5599 82.6727 36.5406 82.7238C36.5349 82.7365 36.5265 82.7478 36.5161 82.757C36.5056 82.7662 36.4933 82.773 36.4799 82.777C36.4665 82.781 36.4525 82.782 36.4387 82.7801C36.4249 82.7782 36.4116 82.7734 36.3999 82.7659C36.3267 82.7168 36.3464 82.4881 36.466 82.4965Z" fill="#402823"/>
<path d="M37.4231 82.8178C37.4434 82.8162 37.4637 82.8221 37.4798 82.8346C37.496 82.8471 37.5069 82.8651 37.5103 82.8852C37.5209 82.9387 37.5166 82.994 37.4977 83.0452C37.492 83.0579 37.4836 83.0692 37.4731 83.0784C37.4626 83.0875 37.4503 83.0943 37.4369 83.0983C37.4236 83.1023 37.4095 83.1034 37.3957 83.1015C37.3819 83.0996 37.3687 83.0947 37.3569 83.0873C37.2837 83.0382 37.3034 82.8108 37.4231 82.8178Z" fill="#402823"/>
<path d="M36.4829 82.105C36.3257 82.1117 36.1711 82.1474 36.0269 82.2102C36.0206 82.2133 36.0148 82.2175 36.0101 82.2228C36.0054 82.228 36.0018 82.2341 35.9994 82.2408C35.9971 82.2474 35.996 82.2545 35.9964 82.2615C35.9968 82.2685 35.9986 82.2754 36.0016 82.2818C36.0047 82.2882 36.0089 82.2939 36.0142 82.2986C36.0194 82.3033 36.0256 82.3069 36.0322 82.3093C36.0389 82.3116 36.046 82.3126 36.053 82.3122C36.0601 82.3119 36.067 82.3101 36.0734 82.3071C36.2005 82.2527 36.3363 82.2213 36.4745 82.2144C36.5462 82.2102 36.5561 82.1008 36.4829 82.105Z" fill="#543732"/>
<path d="M37.5258 82.3899C37.447 82.3393 37.3626 82.2958 37.2795 82.2495C37.1965 82.2032 37.1585 82.3113 37.2232 82.3436C37.288 82.3758 37.3907 82.4306 37.4709 82.4839C37.5512 82.5372 37.5863 82.4291 37.5258 82.3899Z" fill="#543732"/>
<path d="M37.1248 81.2433C37.1248 81.2433 36.3592 82.3983 35.5626 82.9483C34.5268 83.664 34.973 84.8933 34.6844 85.6581C34.3959 86.4229 33.802 87.0264 33.1983 86.8818C32.5945 86.7373 32.2919 86.2265 31.7149 85.8167C29.7123 84.3938 32.1681 83.8521 32.1526 82.8599C32.1371 81.8678 33.0153 80.7045 33.5937 80.6497C34.1722 80.595 34.2285 79.9621 34.6324 79.819C35.9637 79.3489 36.9193 80.5192 37.1248 81.2433Z" fill="#434A59"/>
<path d="M31.0125 87.7603C31.9329 88.9391 32.5606 90.5515 33.1911 92.0236C34.2607 94.499 35.4217 96.7836 35.4217 96.7836C35.4217 96.7836 47.4012 100.891 47.5517 101.107C47.8332 101.528 48.2554 102.576 47.8332 103.268C47.6826 103.518 39.2877 104.317 34.7448 102.367C30.1301 100.387 27.9304 91.4819 28.0486 90.0589C28.2386 87.7828 30.306 86.8538 31.0125 87.7603Z" fill="#FEA03C"/>
<path d="M32.8787 100.863C32.8412 100.863 32.8045 100.853 32.7731 100.832C32.7182 100.798 31.4136 99.9621 29.6882 96.712C27.9628 93.462 27.8488 90.0982 27.8474 90.0645C27.8466 90.0382 27.8511 90.0119 27.8605 89.9873C27.8699 89.9627 27.8841 89.9401 27.9023 89.921C27.9205 89.9018 27.9423 89.8864 27.9664 89.8757C27.9905 89.8649 28.0166 89.859 28.043 89.8583C28.0964 89.8571 28.1481 89.8769 28.1871 89.9134C28.226 89.9498 28.2491 90.0001 28.2513 90.0533C28.2513 90.0856 28.3681 93.3665 30.0443 96.524C31.7092 99.659 32.9744 100.484 32.987 100.493C33.024 100.516 33.0525 100.55 33.068 100.591C33.0835 100.632 33.0852 100.677 33.073 100.719C33.0607 100.76 33.0352 100.797 33.0001 100.823C32.965 100.849 32.9224 100.863 32.8787 100.863Z" fill="#54678C"/>
<path d="M35.2599 96.6601C35.2224 96.6603 35.1857 96.65 35.1539 96.6304C35.122 96.6108 35.0963 96.5827 35.0797 96.5492C35.0516 96.4931 32.1243 90.5515 31.6838 89.4822C31.3052 88.5742 31.0392 87.968 30.8098 87.8249C30.7873 87.8109 30.7678 87.7928 30.7524 87.7713C30.737 87.7499 30.726 87.7257 30.72 87.7C30.714 87.6743 30.7131 87.6477 30.7174 87.6217C30.7217 87.5957 30.7311 87.5708 30.745 87.5484C30.759 87.526 30.7772 87.5066 30.7987 87.4912C30.8202 87.4759 30.8445 87.4649 30.8703 87.4589C30.896 87.4529 30.9227 87.452 30.9488 87.4563C30.9749 87.4606 30.9998 87.4699 31.0223 87.4839C31.346 87.6845 31.5852 88.1995 32.0567 89.3278C32.4888 90.3648 35.4133 96.3149 35.4344 96.3696C35.4579 96.4165 35.4623 96.4706 35.4465 96.5206C35.4307 96.5707 35.3961 96.6126 35.3499 96.6376C35.3219 96.6517 35.2912 96.6594 35.2599 96.6601Z" fill="#54678C"/>
<path d="M87.7952 92.018C87.1351 87.808 83.8855 84.8512 79.7732 82.0348C78.3926 81.089 77.7846 79.8555 78.3659 78.5574C78.6473 77.9189 79.3735 76.778 80.4276 77.1443C81.6126 77.5554 81.0286 78.9405 80.7626 79.6871C83.3549 80.3971 85.9478 81.1058 88.5411 81.8131C89.7767 78.6795 89.9301 75.5094 86.5708 72.881C87.2013 72.1597 87.8749 71.4618 88.5917 70.7873C87.1515 69.8966 85.7132 69.0051 84.2768 68.1125C83.468 68.8741 82.7057 69.6637 81.9898 70.4813C75.7749 68.7188 71.1756 73.6374 69.7317 77.4095C67.8487 82.3337 69.567 87.0166 75.7425 89.899C77.6256 90.8504 78.926 91.959 79.2792 93.6318C79.42 94.3068 79.4945 95.588 78.4573 95.7199C77.1485 95.8883 76.6278 94.1959 76.3941 93.4339C73.5794 93.6116 70.768 93.7885 67.9598 93.9643C68.8282 97.9034 72.3227 103.243 78.6741 102.558C79.2905 103.612 79.9491 104.639 80.6627 105.661L85.4181 103.873C84.78 102.991 84.1908 102.075 83.6533 101.128C87.7628 99.0668 88.3539 95.5838 87.7952 92.018Z" fill="white"/>
<path d="M26.9636 112.926C26.9392 112.926 26.9149 112.922 26.8918 112.915C26.86 112.905 26.8304 112.89 26.8047 112.869C26.7789 112.849 26.7576 112.823 26.7419 112.794C26.7262 112.765 26.7164 112.733 26.7131 112.701C26.7099 112.668 26.7132 112.635 26.7229 112.603C27.0508 111.506 27.8966 110.446 29.1675 109.537C29.7393 109.125 30.3524 108.774 30.9971 108.489C31.0278 108.474 31.0612 108.466 31.0951 108.465C31.1291 108.464 31.1629 108.47 31.1946 108.482C31.2262 108.494 31.2551 108.513 31.2795 108.536C31.3038 108.56 31.3231 108.588 31.3362 108.619C31.3493 108.65 31.3559 108.684 31.3557 108.718C31.3555 108.752 31.3484 108.785 31.3348 108.816C31.3213 108.847 31.3016 108.875 31.2769 108.899C31.2523 108.922 31.2231 108.94 31.1913 108.952C31.1589 108.966 27.929 110.342 27.2084 112.741C27.1938 112.794 27.1619 112.841 27.1176 112.875C27.0733 112.908 27.0192 112.926 26.9636 112.926Z" fill="#493734"/>
</g>
<defs>
<clipPath id="clip0">
<rect width="185" height="160" fill="white"/>
</clipPath>
</defs>
</svg>
